<?xml version="1.0" encoding="utf-8"?>
<!-- Generator: Adobe Illustrator 22.1.0, SVG Export Plug-In . SVG Version: 6.00 Build 0)  -->
<svg version="1.1" id="Слой_1" xmlns="http://www.w3.org/2000/svg" xmlns:xlink="http://www.w3.org/1999/xlink" x="0px" y="0px"
	 viewBox="0 0 512 512" style="enable-background:new 0 0 512 512;" xml:space="preserve">
<style type="text/css">
	.st0{fill:#317BC5;}
	.st1{fill:#71BA32;}
	.st2{fill:#479BA6;}
	.st3{fill:#F1A744;}
	.st4{fill:#EEA543;}
</style>
<path d="M73,141c0,10.3,0,20.4,0,30.6c0,27.7,0,55.3,0,83c0,2.6,0.4,4.2,3.1,5.8c17.1,10.4,17.1,31-0.1,41.4
	c-2.4,1.5-3.2,2.9-2.9,5.4c0.1,1.5,0.2,3,0,4.5c-0.8,6.7,0.2,11.5,7.5,15.1c7.1,3.5,9.5,11.5,10.3,19.3c1.3,11.7,2.1,23.4,3.3,35
	c0.8,8,1.5,16.1,2.7,24.1c1.2,7.7-2,11.9-9.8,11.9c-14.7,0-29.3,0-44,0c-7.8,0-10.9-4.2-9.8-11.9c1.2-8.1,1.9-16.4,2.8-24.6
	c1.4-13.1,2.2-26.4,4.2-39.4c1.2-7.7,6.8-13.2,13.5-16.8c2.6-1.4,3.6-2.8,3.3-5.6c-0.2-1.6-0.2-3.4,0-5c0.9-6.7-1.4-10.8-7.1-15.4
	c-13.6-10.9-11.5-27.9,3.9-38c2.5-1.6,3.2-3.1,3.2-5.8c-0.1-40.8,0-81.7-0.1-122.5c0-5.2,1.7-8.6,6.1-11.5
	c52.2-33.8,104.3-67.6,156.4-101.6c3.4-2.2,6.5-2.5,10.2-1c39.3,16.2,78.6,32.2,117.8,48.3c18.6,7.6,37.2,15.2,55.8,22.8
	c3.3,1.4,5.6,3.7,5.7,7.4c0.1,3.4-1.6,5.8-4.7,7.6c-14.8,8.4-29.5,17-44.4,25.1c-3.1,1.7-3.3,3.9-2.8,6.5c0.8,4.4,1.6,8.7,2,13.2
	c0.2,2.5,1.1,4.9,3.2,7c23.8,23,38.3,51.1,44.5,83.4c4.1,21.6,2.6,43.1-2.9,64.3c-7.5,29.2-22.8,53.7-45.1,73.8
	c-21.2,19.1-46,31.1-74,36.5c-34.1,6.6-66.6,1.7-97.3-14.1c-35.5-18.3-59.7-46.9-73.5-84.3c-6.3-17.2-9.5-35-9-53.3
	c0.7-26.8,7.8-51.9,21.5-75c1.1-1.9,1.6-3.2,0.7-5.4c-3.2-7.7-6.2-15.5-9.2-23.2c-0.6-1.6-1.5-2.9-3.2-3.5
	c-13.4-4.8-26.7-9.5-40.1-14.3C74.3,140.8,73.8,141,73,141z"/>
<path d="M131,399.8c2.4-2.7,4.7-4.9,6.4-7.5c3.1-4.7,5.6-3.3,9-0.2c22.4,20.2,48.6,33.3,78.1,38.7c49.4,9,95.1-0.8,135.2-31.3
	c33.9-25.8,54.8-60.4,62.4-102.6c8.9-49.6-2.3-94.5-32.5-134.6c-2.6-3.4-5.6-6.5-8.6-9.7c-1.4-1.5-1.8-2.6,0.1-3.9
	c0.5-0.4,1-0.9,1.5-1.4c8.8-8.1,8.7-8.1,16.3,1.4c17.5,21.8,29.8,46.1,36.6,73.1c4.3,17.1,6.4,34.5,5.3,52.1
	c-2.5,40.4-16.1,76.5-42,107.8c-23.4,28.3-52.5,48.3-87.5,59.4c-14,4.5-28.3,7.6-43.1,7.8c-2.7,0-3.3,0.8-3.3,3.4
	c0.2,8.3,0.2,16.7,0,25c-0.1,3.2,0.9,3.8,3.9,3.8c18.7-0.1,37.3,0,56-0.2c3.6,0,4.4,0.9,4.3,4.4c-0.2,11.7,0,11.7-11.9,11.7
	c-42.5,0-85-0.1-127.5,0.1c-4,0-4.9-1.1-4.8-4.9c0.2-11.2,0.1-11.2,11.4-11.2c16.2,0,32.3-0.1,48.5,0.1c3.6,0,4.4-0.9,4.3-4.4
	c-0.3-8-0.2-16,0-24c0.1-2.8-0.9-3.6-3.7-3.8c-39.9-2.3-75-16.7-105.8-41.9C136.7,404.7,134,402.3,131,399.8z"/>
<path class="st0" d="M277.6,186.6c-0.6-7.2,0.2-12.9-1.4-18.4c-3.1-11.1-11.6-15.5-22.3-11.1c-4.1,1.7-7.9,4.2-12,6.2
	c-6.4,3.1-11.8,0-12.5-7c-0.2-2.5,1.7-2,3-2.1c13.6-1.8,27.2-2.6,40.9-2.5c26.4,0.2,51.9,4.5,76,16.2c3.8,1.8,6.6,4.1,9.3,7
	c11.3,12.5,19.9,26.7,25.8,42.4c0.6,1.6,1.8,3.2,1.2,5.3c-0.5-0.2-1-0.3-1.4-0.6c-13.5-9.1-24-5.1-33.1,6.2
	c-10.5,13.3-16.3,28.2-13.2,45.5c1.2,6.9,4.2,13,9.3,17.9c4.2,4,5.6,8.8,5.9,14.3c0.2,3.8-0.9,6.8-4.1,9
	c-11.5,8.1-19.7,19.4-28.6,29.9c-9.5,11.2-9.7,24.4-3.5,37.5c1.6,3.4,1.1,4.5-2.3,6.1c-28.4,12.9-57.7,15.7-89,9.1
	c3.9-2.2,7.3-2.2,10.7-2.5c23.9-2,42-13.7,55.3-33.3c3-4.4,5.3-9.3,5.4-14.8c0.1-6.7-3.6-12-10.1-13.8c-2.5-0.7-5.2-1-7.9-1.3
	c-12.1-1.4-22.4-6.7-30.8-15.2c-17.4-17.4-37.6-13.8-53.1-3.2c-13.2,9.1-13.9,20.9-1.8,31.3c0.3,0.2,0.5,0.4,0.8,0.6
	c8.9,7.6,8.8,10.1-0.8,17.3c-4.7,3.5-9.5,6.8-13.9,10.6c-2,1.7-3.1,1.5-5,0c-27.4-21.1-44.9-48.5-51.2-82.5
	c-6.4-34.2-0.7-66.6,17.5-96.5c4.9-8.1,13.7-11.3,21.4-15.9c2.6-1.6,3.6,1.7,4.7,3.3c1.9,2.9,3,5.8-0.1,9
	c-6.8,6.9-12.1,15.1-16.2,23.8c-6.5,13.7-10,27.9-6.7,43.1c2.9,13.6,10.9,23.8,22.3,31.3c11,7.2,20.6,2.4,21.7-10.8
	c0.5-5.7,0.1-11.5,0.1-18.3c5.2,3.7,9.4,6.8,13.7,9.8c6.2,4.2,12.8,6.9,20.5,6.9c5.9-0.1,11.5-1.6,15.5-5.8
	C247.6,260,260,256,274,253.8c18.2-2.9,34.7-10.6,48.3-23.3c17.5-16.3,19.4-36.5,5.7-56.1c-7.5-10.7-17.7-13.1-29.2-6.9
	c-5.9,3.2-10.7,7.9-15.4,12.6C281.7,181.8,280.1,183.7,277.6,186.6z"/>
<path class="st1" d="M260.8,171.3c1.1,6.8,0.1,13.1,1,19.4c1.8,13.1,11.1,17.6,22.1,10.2c6.2-4.2,11.1-10,16.6-15.1
	c9.4-8.7,16.1-6.9,19.5,5.5c2.7,9.6,0.9,18.3-6,25.4c-11.7,12.1-26.3,19-42.6,21c-16.2,2-30.1,7.7-41.9,18.8
	c-5,4.7-9.4,5.2-15.4,1.8c-4.3-2.5-8.2-5.6-12.3-8.5c-1.6-1.1-3.3-2.3-5-3.3c-11.4-6.4-21.3-1.6-23.7,11.3c-1.1,5.7-0.6,11.5-1,18.3
	c-8.9-9.2-13.9-19.2-13.3-31.3c0.7-14.6,6.2-27.4,16.9-37.8c10.9-10.6,12.3-20.9,4.9-34.2c-1.3-2.4-1.2-3.1,1.4-4.2
	c8.4-3.5,17-6.5,25.8-9.1c3.9-1.1,5.8-0.4,7.1,3.4c3.1,9.3,8.8,16,19.1,17.6c6.4,1,12.1-1.5,17.7-4.2
	C254.5,174.9,257.4,173.1,260.8,171.3z"/>
<path class="st2" d="M83.9,127.3c0.8-2.1,2.3-2.5,3.5-3.3c44.8-29.2,89.6-58.3,134.4-87.5c3-2,5.3-2.1,8.6-0.8
	C279.5,56,328.6,76,377.7,96.1c1.4,0.6,2.7,1.2,4.8,2.2c-9.1,5.2-17.5,10-25.9,14.8c-1.8,1.1-2.6,0.1-2.5-1.5
	c0.5-10.6-6.6-14.1-15.1-16.9c-13.3-4.3-26.9-6.5-40.7-7.2c-30.5-1.6-61-1.3-90.9,5.9c-31.5,7.6-59.6,22.7-85.8,41.4
	c-4.3,3.1-7.8,3.7-12.6,1.6C100.8,133.1,92.3,130.4,83.9,127.3z"/>
<path class="st2" d="M342.9,147.5c-11-3.6-21.6-6.8-32.6-8.6c-30.6-5-61-4.3-91.4,1.3c-26.6,4.9-51.1,15.4-73.8,29.8
	c-3.9,2.5-5,1.7-6.4-2.3c-1.9-5.8-4.4-11.5-6.8-17.1c-0.9-2.1-0.6-3.2,1.3-4.5c34.6-23.9,71.7-40.5,114.5-42.4
	c21.8-0.9,43.6-1.9,65.3,1.2c7.3,1,14.4,2.7,21.3,5.1c1.8,0.6,3.4,1.2,3.7,3.5C339.5,124.7,341.2,135.8,342.9,147.5z"/>
<path class="st1" d="M393,265.4c-0.6,36.4-13.6,67.7-38.6,94.1c-5.8,6.2-13.6,10.1-19.3,16.5c-1.8,2.1-3.3,1.9-4.5-1.1
	c-3-8.1-2.4-15.6,3.7-21.8c8.7-8.9,16.3-18.8,26-26.9c12.1-10.1,11.7-30.6,0.3-43.7c-11.2-12.9-9.9-34.3,2.6-46
	c4.3-4,7.8-4.4,12.6-1.5C385.4,240.7,393,254.3,393,265.4z"/>
<path class="st1" d="M281.8,349.4c-1.4,5.5-4.7,9.2-8.4,12.5c-10.5,9.5-22.3,16.1-37,16.3c-10.6,0.1-20,3.4-27.4,11.2
	c-1.9,1.9-3.5,1.5-5.3,0.5c-3.5-2-9.4-2.4-10.1-6c-0.5-2.5,5.4-4.5,8.3-7c2.7-2.3,5.5-4.4,7.9-6.9c10.1-10.3,9.8-23.1-0.7-33
	c-1.7-1.6-3.4-3.3-5.3-4.5c-3.8-2.5-2.5-4.7,0.2-7c6.3-5.2,22-8,30.1-0.1c10.6,10.4,23,18,37.4,22.1
	C274.8,348.4,278.1,349.3,281.8,349.4z"/>
<path class="st3" d="M64.8,401c-3.8,0-7.6-0.1-11.5,0c-2.4,0.1-3.6-0.3-3.3-3.2c1.8-17.3,3.4-34.7,5.3-52c0.7-6.2,3.7-8.7,9.4-8.8
	c5.4,0,9.3,3.3,9.9,9.1c1.8,17.2,3.4,34.4,5.2,51.6c0.3,2.6-0.5,3.5-3.1,3.4C72.8,400.8,68.8,401,64.8,401z"/>
<path class="st4" d="M65.1,289c-5.4,0-8-2.5-8.1-7.8c-0.1-5.4,2.4-8.1,7.6-8.2c5.6-0.1,8.4,2.5,8.3,8C73,286.4,70.4,289,65.1,289z"
	/>
</svg>
