<?xml version="1.0" encoding="utf-8"?>
<!-- Generator: Adobe Illustrator 22.1.0, SVG Export Plug-In . SVG Version: 6.00 Build 0)  -->
<svg version="1.1" id="Слой_1" xmlns="http://www.w3.org/2000/svg" xmlns:xlink="http://www.w3.org/1999/xlink" x="0px" y="0px"
	 viewBox="0 0 512 512" style="enable-background:new 0 0 512 512;" xml:space="preserve">
<style type="text/css">
	.st0{fill:#01840C;}
	.st1{fill:#404A45;}
	.st2{fill:#00840B;}
	.st3{fill:#3D4742;}
</style>
<path class="st0" d="M512,185c-14.2,26.6-21.7,55.8-32.7,83.6c-7.9,20.1-14.6,24.3-35.9,20.4c-4.9-0.9-5.6-4.1-6.7-7.2
	c-11.2-30.6-22.1-61.2-33.2-91.8c-2.2-5.9-2-9.8,5.8-9.1c0.9,0.1,1.8,0,2.7,0c23.2-0.7,23.2-0.7,29.7,21.5
	c5,16.9,10.8,33.6,15.7,51.7c3.6-12.9,7.2-25.9,10.8-38.8c0.7-2.6,1.2-5.3,1.9-7.9c8.4-30.2,9.7-31,41.9-25.1
	C512,183.2,512,184.1,512,185z"/>
<path class="st1" d="M161.3,274.3c-0.9-4.7-3.9-8.2-7.9-8.7c-6.8-0.9-8.6-4-8.3-10.5c0.2-5.3-3.2-9.8-8.6-10.8
	c-3.9-0.7-7.4,2.7-7.7,6.2c-0.6,9.4-4.9,15-14,17.5c-1.7,0.5-2.7,3.4-4.1,5.2c13.7,8.3,14.6,9.6,16.9,24.1
	c-14.7-2.2-23.9-14-23.5-30.2c0.4-16.2,13.3-29.8,30-31.7c14.2-1.6,29.7,11,32.9,26.8c3.3,16.1-4.9,29.8-22.1,35.8
	C142.9,284.6,149.7,277.8,161.3,274.3z"/>
<path class="st2" d="M394.6,200.6c-8.6-13.6-22.4-18.3-35.9-23.8c-7.3,0-14.6,0-21.9,0c-1.4,4.9-6.1,3.1-9.2,4.1
	c-41.1,14.3-42.5,69.3-22.4,91.3c18.5,20.4,55.3,24,77.2,7.3C404.8,262.4,410.2,225.2,394.6,200.6z M347.8,267.2
	c-13.5-0.6-23.2-16.1-22-35.2c1.2-19,9.7-30.6,22.2-30.6c13.1,0,21.5,12.5,21.7,32.3C369.9,253.5,360.6,267.8,347.8,267.2z"/>
<path class="st3" d="M38.8,247.8c14.2,0,28.2-1.2,41.1-7.6c15.7-7.7,21.1-18.5,18.3-35.5c-2-12.3-13.3-22.7-27.9-24.5
	c-15.4-1.9-29.5,2-42.5,10.9c-15.5,10.6-21,27.3-28,43.2c0,8.2,0,16.4,0,24.6c6.3,7.9,7.6,18.8,17.4,24.8
	c15.6,9.6,31.8,9.6,48.7,5.8c21.3-4.7,21.3-4.7,17.1-26.9c-4.8,1.3-9.5,3.4-14.3,3.9c-12.5,1.1-25.8,4.6-35.3-7.6
	c-1.9-2.4-4.2-5.4-2.9-8.7C32.1,246.2,36,247.8,38.8,247.8z M37.6,214.2c4.9-7.1,11.7-11.7,20.3-12.2c5.6-0.3,11,1.8,12.7,8
	c1.7,6.3-3,8.9-7.5,11.4c-6.2,3.4-13.3,2.7-19.5,3.8c-3.5-0.3-7.7,1.4-9.4-1.6C32.2,220.1,35.7,216.9,37.6,214.2z"/>
<path class="st2" d="M282,186.2c0-2.4-0.6-4.1-3.2-5.2c-8.9-3.6-23.2,1.5-27.7,10.1c-18.6-16.3-41.5-16.2-58.6,0.2
	c-21.1,20.2-23.8,58.4-5.7,81c15,18.7,38.3,20.3,61.5,4.1c2.7,23.4-8.4,35.5-31.4,33.5c-6.7-0.6-13.3-2.9-19.9-4.7
	c-2.9-0.8-5.1-3.3-7.7,1.2c-8.4,14.6-4.9,23,11.7,26.4c2.7,0.6,5.3,1.5,8,1.8c30.5,3,67.6-2,71.4-45.8
	C283.2,254.7,281.6,220.3,282,186.2z M249.1,243.2c-0.8,10.6-5.6,18.5-16.6,20.1c-10.9,1.6-18.1-4-21.9-14.2
	c-3.5-9.6-4.2-19.3-0.4-29.1c4.2-10.9,11.3-18.3,23.6-15.6c11.2,2.5,15.8,11.1,15.4,22.4c-0.1,2.3,0,4.5,0,6.8
	C249.2,236.8,249.4,240,249.1,243.2z"/>
</svg>
