<svg width="480" height="480.00023" xmlns="http://www.w3.org/2000/svg">

 <g>
  <title>background</title>
  <rect fill="none" id="canvas_background" height="602" width="802" y="-1" x="-1"/>
 </g>
 <g>
  <title>Layer 1</title>
  <path id="svg_1" fill="#bdfdff" d="m439.68359,240c0,110.45703 -89.54296,200 -200,200c-110.45703,0 -200,-89.54297 -200,-200s89.54297,-200 200,-200c110.45704,0 200,89.54297 200,200zm0,0"/>
  <path id="svg_2" fill="#ff3051" d="m239.68359,8c-46.58203,-0.05469 -92.08984,13.97266 -130.55859,40.24219l-0.18359,0.11719l-37.25782,-40.35938l-16,120l112,-16l-36.71093,-39.76953l0.55078,-0.39063c71.70312,-46.16406 164.78906,-41.78515 231.84375,10.90235c67.05078,52.6914 93.32031,142.10156 65.42187,222.6875c-27.89843,80.58594 -103.82812,134.61719 -189.10547,134.57031c-5.83984,0 -11.60156,-0.32031 -17.28125,-0.80078l-12.32031,30.88281c9.82031,1.25 19.70313,1.89063 29.60156,1.91797c128.12891,0 232,-103.87109 232,-232s-103.87109,-232 -232,-232zm0,0"/>
  <path id="svg_3" d="m19.76563,282.76953c-1.95313,-10.11328 -3.20313,-20.34765 -3.75391,-30.63281c-0.23828,-4.41797 -4.01172,-7.8086 -8.43359,-7.57031c-4.41797,0.24218 -7.80469,4.01562 -7.56641,8.43359c0.58203,11.01172 1.91797,21.97266 4,32.80078c0.72656,3.75781 4.01172,6.47266 7.83984,6.48047c0.51172,0 1.02344,-0.05078 1.52735,-0.14453c2.08984,-0.39063 3.9414,-1.60156 5.13672,-3.35938c1.19921,-1.75781 1.64843,-3.91796 1.25,-6.00781zm0,0"/>
  <path id="svg_4" d="m55.49219,367.51953c-2.51563,-3.63281 -7.50391,-4.53906 -11.13672,-2.02344c-3.63281,2.51563 -4.53906,7.50391 -2.02344,11.13672c6.28516,9.06641 13.1836,17.69141 20.65625,25.8086c2.98828,3.2539 8.05078,3.46875 11.30469,0.48046c3.25391,-2.99218 3.46875,-8.05078 0.48047,-11.30468c-6.97266,-7.58203 -13.41406,-15.63282 -19.28125,-24.09766zm0,0"/>
  <path id="svg_5" d="m7.83594,228.55859c0.22265,0.01563 0.4414,0.01563 0.66406,0c4.17578,0.01563 7.65625,-3.18359 8,-7.34375c0.83984,-10.26562 2.39844,-20.46093 4.65625,-30.51171c0.96875,-4.31641 -1.75,-8.60157 -6.07031,-9.57032c-4.31641,-0.96875 -8.60157,1.75 -9.57032,6.06641c-2.42968,10.78125 -4.10937,21.71875 -5.03125,32.73047c-0.17578,2.12109 0.50391,4.22265 1.88282,5.84375c1.3789,1.61719 3.34765,2.62109 5.46875,2.78515zm0,0"/>
  <path id="svg_6" d="m122.28516,430.82422c-8.77344,-5.40625 -17.16016,-11.41406 -25.10547,-17.97656c-3.40625,-2.8125 -8.44922,-2.33203 -11.26563,1.07422c-2.8125,3.40625 -2.33203,8.44921 1.07422,11.26171c8.51563,7.02344 17.4961,13.45704 26.88672,19.25782c2.43359,1.6289 5.5625,1.80078 8.15625,0.44531c2.59766,-1.35547 4.24609,-4.01953 4.29688,-6.94922c0.05078,-2.92578 -1.5,-5.64844 -4.04297,-7.09766l0,-0.01562zm0,0"/>
  <path id="svg_7" d="m19.63672,165.82422c0.89844,0.33594 1.85156,0.51172 2.81641,0.51172c3.33203,0 6.3125,-2.06641 7.48828,-5.1836c2.69922,-7.20703 5.77734,-14.26953 9.22265,-21.15234c1.9336,-3.94531 0.32422,-8.71094 -3.60937,-10.67578c-3.92969,-1.96484 -8.70703,-0.39063 -10.70313,3.52344c-3.68359,7.38281 -6.98828,14.94922 -9.89453,22.67187c-1.55469,4.13672 0.53906,8.75391 4.67969,10.30469zm0,0"/>
  <path id="svg_8" d="m27.68359,312.58594c-1.42968,-4.1836 -5.98046,-6.41406 -10.16406,-4.98047c-4.18359,1.42969 -6.41015,5.98047 -4.98047,10.16406c3.58985,10.4375 7.89063,20.6211 12.8711,30.47266c2.05078,3.83594 6.78906,5.33203 10.67187,3.36719c3.87891,-1.96485 5.48047,-6.66797 3.60156,-10.59375c-4.64843,-9.1875 -8.66015,-18.6875 -12,-28.42969zm0,0"/>
  <path id="svg_9" d="m178.68359,455.60156c-9.91406,-2.79297 -19.62109,-6.26562 -29.05468,-10.40234c-4.01563,-1.60547 -8.57813,0.26562 -10.3086,4.22656c-1.73047,3.96094 0,8.57813 3.90625,10.42969c10.11719,4.44141 20.52344,8.18359 31.15235,11.19922c0.71093,0.19922 1.4414,0.30078 2.17578,0.30469c4,0.00781 7.39062,-2.94141 7.9375,-6.90625c0.54687,-3.96094 -1.91797,-7.71875 -5.76953,-8.79688l-0.03907,-0.05469zm0,0"/>
  <path id="svg_10" d="m45.58594,307.26563c1.68359,4.08593 6.35937,6.03515 10.44531,4.35546c4.08594,-1.68359 6.03906,-6.35937 4.35547,-10.44531c-3.90625,-9.4414 -7,-19.20312 -9.23828,-29.17578c-0.95703,-4.31641 -5.23047,-7.03906 -9.54688,-6.08203c-4.32031,0.95312 -7.04297,5.23047 -6.08593,9.54687c2.44531,10.86719 5.8164,21.50391 10.07031,31.80079zm0,0"/>
  <path id="svg_11" d="m47.03516,186.65625c0.77734,0.24219 1.58593,0.36719 2.40234,0.36719c3.49219,0 6.58203,-2.26563 7.62891,-5.59766c3.05859,-9.77734 6.89062,-19.29297 11.46484,-28.45703c1.98828,-3.94922 0.39844,-8.76172 -3.54687,-10.75c-3.94922,-1.98828 -8.76172,-0.39844 -10.75,3.55078c-4.95704,9.92969 -9.11329,20.23828 -12.42969,30.83203c-0.64453,2.02735 -0.45313,4.22657 0.52734,6.11328c0.98047,1.88672 2.67578,3.30469 4.70313,3.94141zm0,0"/>
  <path id="svg_12" d="m47.68359,241.64063l0,-1.53516c0.12891,-9.625 0.92969,-19.22656 2.39844,-28.73828c0.49219,-2.85156 -0.59765,-5.7461 -2.84765,-7.56641c-2.25,-1.82422 -5.3086,-2.28906 -8,-1.21484c-2.6875,1.07031 -4.58594,3.51172 -4.96485,6.38281c-1.58203,10.23438 -2.44531,20.56641 -2.58594,30.91797l0,2.12891c0.00782,2.10546 0.85547,4.11718 2.35938,5.58593c1.50781,1.46875 3.53906,2.27344 5.64062,2.23047c4.45704,-0.08594 8.01954,-3.73437 8,-8.1914zm0,0"/>
  <path id="svg_13" d="m136.35547,396.67969c-8.35156,-6.02344 -16.27734,-12.6211 -23.71094,-19.74219c-3.20703,-2.93359 -8.16797,-2.76953 -11.17578,0.37109c-3.00391,3.13672 -2.95703,8.10157 0.10938,11.17969c7.97265,7.64844 16.47265,14.72656 25.43359,21.1836c3.58594,2.58203 8.58594,1.76562 11.16797,-1.82422c2.58203,-3.58594 1.76562,-8.58594 -1.82422,-11.16797zm0,0"/>
  <path id="svg_14" d="m190.88281,424.38281c-9.74609,-3.07812 -19.21484,-6.96875 -28.3125,-11.6289c-3.93359,-2.01172 -8.7539,-0.45313 -10.76172,3.48047c-2.01171,3.9375 -0.45312,8.7539 3.48438,10.76562c9.89453,5.06641 20.19922,9.29688 30.79687,12.64844c4.21875,1.32422 8.70704,-1.01563 10.03516,-5.23047c1.32422,-4.21484 -1.01953,-8.70703 -5.23437,-10.03516l-0.00782,0zm0,0"/>
  <path id="svg_15" d="m90.53906,365.34375c3.45313,-2.75391 4.02344,-7.78516 1.27344,-11.23828c-6.4375,-8.05859 -12.31641,-16.54688 -17.60156,-25.40234c-1.38672,-2.59766 -4.09375,-4.22266 -7.04297,-4.23047c-2.94531,-0.00391 -5.66016,1.61328 -7.05469,4.20703c-1.39844,2.59765 -1.25781,5.75 0.3711,8.20703c5.65234,9.48047 11.9414,18.57031 18.82421,27.20312c2.75391,3.45703 7.79297,4.02344 11.2461,1.26172l-0.01563,-0.00781zm0,0"/>
  <path id="svg_16" d="m239.68359,0c-45.91796,-0.07422 -90.88671,13.07813 -129.52734,37.88672l-32.59375,-35.30859c-2.10156,-2.28125 -5.33203,-3.13672 -8.28906,-2.20313c-2.95703,0.9375 -5.10547,3.49609 -5.51953,6.57031l-16,120c-0.32813,2.48047 0.52343,4.97266 2.29687,6.73438c1.77735,1.76172 4.27735,2.58984 6.75391,2.24219l112,-16c2.9375,-0.42579 5.40234,-2.44532 6.39453,-5.24219c0.99609,-2.80078 0.35547,-5.92188 -1.66016,-8.10156l-30.1289,-32.63282c69.87109,-40.55468 157.64843,-33.03515 219.60156,18.8086s84.82812,136.92187 57.22656,212.84375c-27.59765,75.92187 -99.76953,126.44922 -180.55469,126.40234l-0.09765,0c-6.31641,0 -12.62891,-0.38672 -18.90235,-1.15234c-4.38672,-0.53125 -8.375,2.59765 -8.90234,6.98437c-0.53125,4.38672 2.59375,8.375 6.98437,8.90235c6.89844,0.83984 13.84766,1.26171 20.79688,1.26562l0.12109,0c88.78907,0.07031 167.83594,-56.23047 196.79297,-140.16406c28.95703,-83.9375 1.44141,-177 -68.50781,-231.69141c-69.94531,-54.6914 -166.89844,-58.95312 -241.37109,-10.60937c-1.97266,1.28906 -3.27735,3.3789 -3.57032,5.71484c-0.28906,2.33984 0.46485,4.68359 2.0625,6.41406l26.40235,28.57813l-86.48047,12.36719l12.35156,-92.65625l25.60156,27.79296c2.69141,2.92188 7.1211,3.42579 10.39844,1.1836c79.48828,-54.19922 184.70313,-51.58985 261.40625,6.48437c76.69922,58.07032 107.75391,158.63672 77.14844,249.84375c-30.60156,91.20703 -116.02735,152.6875 -212.23438,152.74219c-10.30078,0.00391 -20.58593,-0.69922 -30.79297,-2.09375c-4.33203,-0.52734 -8.28906,2.52344 -8.88281,6.84766c-0.59765,4.32422 2.38672,8.33203 6.69922,9c88.80859,12.23828 177.03125,-26.03516 228.76953,-99.2461c51.73828,-73.20703 58.35938,-169.14844 17.17188,-248.77344s-123.32032,-129.65625 -212.96485,-129.73437zm0,0"/>
  <path id="svg_17" d="m239.68359,88c-4.41796,0 -8,3.58203 -8,8l0,144c0,2.12109 0.84375,4.15625 2.34375,5.65625l80,80c3.14063,3.03125 8.12891,2.98828 11.21485,-0.09766c3.08593,-3.08593 3.1289,-8.07421 0.09765,-11.21484l-77.65625,-77.65625l0,-140.6875c0,-4.41797 -3.58203,-8 -8,-8zm0,0"/>
  <line stroke="#00ff00" stroke-linecap="undefined" stroke-linejoin="undefined" id="svg_19" y2="344.05011" x2="219.5" y1="87.05012" x1="21.5" stroke-width="18.5" fill="none"/>
  <line stroke="#00ff00" transform="rotate(90 332.00000000000006,182.55010986328128) " stroke-linecap="undefined" stroke-linejoin="undefined" id="svg_21" y2="303.55011" x2="491" y1="61.55012" x1="173" stroke-width="18.5" fill="none"/>
 </g>
</svg>