<?xml version="1.0" encoding="utf-8"?>
<!-- Generator: Adobe Illustrator 22.1.0, SVG Export Plug-In . SVG Version: 6.00 Build 0)  -->
<svg version="1.1" id="Слой_1" xmlns="http://www.w3.org/2000/svg" xmlns:xlink="http://www.w3.org/1999/xlink" x="0px" y="0px"
	 viewBox="0 0 512 512" style="enable-background:new 0 0 512 512;" xml:space="preserve">
<style type="text/css">
	.st0{fill:#CBCFD9;}
	.st1{fill:#B8BECB;}
	.st2{fill:#289372;}
	.st3{fill:#289272;}
	.st4{fill:#AEB4C0;}
	.st5{fill:#C0C4CD;}
	.st6{fill:#258B6C;}
	.st7{fill:#B9BFCC;}
	.st8{fill:#B0B6C2;}
	.st9{fill:#AFB5C0;}
	.st10{fill:#C2C6CF;}
	.st11{fill:#B2B8C5;}
	.st12{fill:#B1B7C3;}
	.st13{fill:#B2B7C4;}
	.st14{fill:#CACED8;}
	.st15{fill:#C1C5CE;}
	.st16{fill:#C1C5CF;}
	.st17{fill:#88909F;}
	.st18{fill:#828896;}
	.st19{fill:#B1B6C2;}
	.st20{fill:#828996;}
	.st21{fill:#AFB4C0;}
	.st22{fill:#AFB5C1;}
	.st23{fill:#C9CDD7;}
	.st24{fill:#278C6D;}
	.st25{fill:#2B9473;}
	.st26{fill:#288C6E;}
	.st27{fill:#828997;}
</style>
<path class="st0" d="M342.9,367.9c8.9-7.6,17.8-15.2,26.8-22.8c8.6-7.2,17.6-14.1,26-21.5c10-8.9,19.1-9.2,29.1-0.4
	c5,4.3,10.1,8.5,15.2,12.7c-10.1,12-21.1,23-33.1,33.1c-0.6,0.2-1.1,0.2-1.7,0.3c-19.1,0.5-38.2,0.2-57.2,0.2
	C346.2,369.5,344.3,369.5,342.9,367.9z"/>
<path class="st1" d="M471.1,504.1c-5.9,1.8-11.9,1.1-17.8,0.6c-14.5-1.2-28.9-0.3-43.3-0.6c-9.6-0.2-19.3-0.1-28.9-0.1
	c-0.1-0.2-0.2-0.5-0.3-0.7c1-3.4,4.1-5,6.1-7.6c7.1-7.2,14.4-14.2,21.4-21.5c3.1-3.2,6.5-4.7,11-4.6c9,0.2,17.9,0.1,26.9,0
	c1.9,0,4.1,0.8,5.1-1.9c0.6-11.9,0-23.8,0.3-35.7c-0.1-6.2-0.1-12.5,0-18.7c0.1-3.7-0.7-7.5,1-11c0.5-0.5,1.1-0.6,1.7-0.2
	c2,2.8,0.9,6.1,1.3,9.2c0.1,6.2,0,12.5,0,18.7c0.1,10.8,0,21.6,0.1,32.4c0.1,5.5,0.5,6,6,6.1c6.7,0.1,13.3,0,20,0
	c1.8,0,3.7-0.3,5.4,0.6c1.1,0.6,2.1,1.3,3.2,1.9c-7.4,1.8-11.5,7.9-16.5,12.7c-3.5,3.3-6.8,6.7-10.1,10.2c-2.9,2.9-5.8,5.8-8.8,8.8
	c5.4,0.4,10.8-0.9,16.1,0.8C470.8,503.7,470.9,503.9,471.1,504.1z"/>
<path class="st1" d="M454,402c-0.4,0-0.7,0-1.1,0c-1.2,1.1-2.6,1.5-4.1,1.5c-17.9,0-35.9,0.5-53.8-0.2c-2-0.5-2.9-1.6-1.6-3.6
	c0.8-1.3,1.9-2.3,3-3.3c8.6-8.6,17.2-17.2,25.7-25.7c1.4-1.4,2.7-2.9,4.7-3.6c0.6-0.2,1.1-0.3,1.7-0.3c14.6-0.5,29.2-0.1,43.7-0.2
	c2,0,3.9,0.5,5.7,1.5c6,0.1,12,0.1,17.9,0.2c1.4,2.4-0.8,3.5-2,4.9c-1.4,1.6-3,3-4.4,4.6c-7.2,7.1-14.3,14.3-21.5,21.4
	c-1.4,1.4-2.7,3-4.6,3.8c-0.5,0.2-1,0.3-1.5,0.4C459.3,403.3,456.4,404,454,402z"/>
<path class="st1" d="M111.1,504.1c-5.9,1.8-11.9,1.1-17.8,0.6c-14.1-1.1-28.3-0.3-42.4-0.6c-10-0.2-20-0.1-30-0.1
	c-0.4-3.5,3-4.5,4.4-6.7c7.3-7.2,14.5-14.6,21.9-21.8c1.9-1.8,3.3-3.6,3.2-6.2c1.4-0.7,2.8-0.6,4.3-0.7c4,0.6,4-1.9,3.7-4.8
	c-0.1-5.8-0.1-11.6,0-17.4c-0.1-1.8,0-3.6,1-5.3c0.5-0.5,1-0.6,1.6-0.3c0.9,1,1,2.2,1.2,3.4c0.1,6,0.1,11.9,0,17.9
	c0.2,2.1-0.5,4.3,0.9,6.3c1.7,1.6,3.8,1,5.7,1c15.8,0,31.6,0,47.4,0c1.2,0,2.3,0,3.5,0.1c1.5,0.1,3.2,0,4,1.5
	c0.7,1.6-0.6,2.8-1.6,3.9c-3.4,3.6-6.8,7.3-10.7,10.4c-7.4,4.8-11.6,12.6-17.5,17.7c5.2-0.6,10.8-1.1,16.5,0.3
	C110.8,503.7,110.9,503.9,111.1,504.1z"/>
<path class="st1" d="M129.1,196.9c-23.7,0-47.4,0-71,0c-0.4-2.4,1.4-3.6,2.7-5c8.4-8.5,17-16.9,25.4-25.5c2.7-2.7,5.6-3.8,9.4-3.7
	c14.7,0.1,29.3,0,44,0c2.3,0,4.7,0.1,6.9-0.7c4.8-0.6,9.5-0.7,14.3,0c3.5,2,0.7,3.6-0.5,5c-4,4.4-8.4,8.5-12.6,12.7
	c-4.6,4.6-9.2,9.1-13.7,13.7C132.4,194.8,130.9,196,129.1,196.9z"/>
<path class="st1" d="M399.1,196.9c-23.7,0-47.4,0-71,0c-0.4-2.6,1.8-3.8,3.2-5.2c9.6-9.8,19.5-19.3,29-29.3c0.7-0.4,1.5-0.5,2.2-0.6
	c1.9-0.1,3.8-0.1,5.7,0.3c3.6,1,7.3,0.5,10.9,0.5c14.8,0.1,29.6,0,44.4,0c1.7,0,3.3-0.1,5,0.2c2.7,0.4,3.8,2.1,1.8,4.1
	C420,177.1,410.8,188.4,399.1,196.9z"/>
<path class="st1" d="M172,61c0.7,0,1.3,0.1,2,0.1c0.4,2.2-1.1,3.4-2.4,4.6c-9,9.2-18.2,18-27,27.3c-1.6,1.7-3.6,2.2-5.8,2.2
	c-21,0-41.9,0-62.9,0c-1.8,0-4.1,0.3-4.8-1.8c-0.6-1.7,1.1-3,2.3-4.2c10.1-9.7,19.2-20.3,30-29.2c0.9-0.4,1.8-0.5,2.7-0.5
	c19.9-0.5,39.9-0.2,59.8-0.2C168,59.4,170,60.2,172,61z"/>
<path class="st1" d="M342.9,367.9c21.4,0,42.7,0,64.1,0.1c0.6,1.6-0.5,2.6-1.4,3.5c-10,10.1-19.9,20.1-30.1,30
	c-0.7,0.7-1.6,1.2-2.6,1.5c-2,0.5-4,0.4-5.9,0.5c-9,0.2-18,0.1-27,0.1c-2.2,0-4.4,0-6.2-1.5c-2.5,0-4.9,0-7.4-0.1
	c-6.7-0.1-9.5-2.9-9.5-9.6c0-1.8,0.1-3.6,0.1-5.4c5.3-7.2,11.6-13.5,18.8-18.8C338.3,368.1,340.6,368,342.9,367.9z"/>
<path class="st0" d="M420.9,13.1c13.4,11,26.7,21.9,40.1,32.9c-4.3,4.8-8.9,9.2-13.6,13.6c-1.5,1.4-3.3,2.2-5.3,2.6
	c-21.8,0.5-43.5,0.6-65.3,0c-2.7-0.8-2.9-2.4-1.5-4.5c1.1-1.7,2.7-3,4.1-4.4c10.5-10.7,21.4-21,31.5-32
	C414.8,19.2,416.7,14.8,420.9,13.1z"/>
<path class="st0" d="M114,321c4.8,2.1,8.2,6.1,12.1,9.2c9.1,7.4,17.9,15.1,26.9,22.7c-4.4,6.4-9.8,11.6-16.1,16.1
	c-0.6,0.2-1.1,0.3-1.7,0.3c-22.1,0.3-44.2,0.5-66.3-0.1c-2-0.5-2.8-1.6-1.5-3.6c0.9-1.4,2.2-2.5,3.3-3.7
	c12.5-12.5,25-25.1,37.6-37.6C110,322.9,111.2,320.5,114,321z"/>
<path class="st0" d="M162,163c-5.3,0-10.6,0-15.9-0.1c-0.2-0.2-0.4-0.4-0.7-0.7c-0.7-1.2-0.9-2.5-0.9-3.8c0-15.9-0.4-31.7,0.2-47.6
	c2.5-7.5,9-11.5,14.3-16.6c0.5-0.3,1.1-0.4,1.6-0.5c4.9-0.5,9.9-0.3,14.9-0.2c1.6,0,3.3,0.1,4.6,1.5c0,6.7,0.2,13.3-0.1,20
	c-0.2,4,1.2,5,5.1,5c25.3-0.1,50.6,0,75.9,0c-0.9,3.3-3.8,2.5-6,2.6c-10.5,0.1-21.1,0.1-31.6,0c-6.6-0.1-13.1,0.1-19.7,0
	c-5.4-0.2-10.9-0.1-16.3-0.1c-5.3,0-5.7,0.6-5.8,6.1c-0.1,6.2,0.3,6.6,5.5,6.8c0.5,0,1,0,1.5,0.1c6.6-0.1,13.2-0.2,19.7,0
	c15.4-0.2,30.8-0.1,46.1,0c2.3,0,5.4-1,6.5,2.6c-24.1,0-48.3,0.1-72.4,0.1c-8.3,0-8.3,0-8.5,7.9c-4.5,6.7-10.6,11.9-16.6,17.2
	C162.9,163.4,162.4,163.3,162,163z"/>
<path class="st1" d="M426,196.9c-2.4,0.1-4.8,0.1-7.2,0.2c-0.5,0.2-0.9,0.1-1.1-0.4c0.2-2.4,2.1-3.7,3.6-5.2
	c9.8-9.5,18.8-19.7,29.2-28.5c0.7-0.6,0.9-1.4,1-2.2c0-6,0.1-12.1,0-18.1c-0.1-15.1,0.2-30.2-0.2-45.3c-0.6-2.6-2.7-2-4.4-2.1
	c-4.2-0.1-8.3,0.2-12.5-0.1c-3.9-0.3-4.7-1.9-2-4.6c10.2-10.2,19.8-21,30.9-30.4c0.8-0.3,1.6-0.5,2.5-0.5c4.5-0.2,9-0.6,13.3,1.3
	c5.5,0,11,0,16.4,0c5.6,0.1,8.5,2.9,8.6,8.6c0.1,5.5,0.1,11,0,16.4c-0.2,5.9-2.7,8.4-8.5,8.9c-2.8,0.2-5.6,0.1-8.5,0.1
	c-2,1.6-4.3,1.5-6.7,1.5c-5.8,0-11.6,0-17.5,0c-7.2,0-7.3,0.1-7.3,7.1c-0.1,12.3,0.1,24.6-0.1,36.9c0.1,6,0.1,12.1-0.1,18.1
	c0,1.1,0.1,2.2,0.1,3.2c0.7,3.9-0.7,7.2-3.4,9.9c-7.7,7.4-15.3,15-22.8,22.8C428.3,195.6,427.2,196.2,426,196.9z"/>
<path class="st1" d="M189,504c-1.4,1.4-3.1,1-4.7,0.9c-24.4-1.7-48.8-0.3-73.2-0.8c0,0-0.1-0.2-0.1-0.2c0.1-3.9,3.8-5.1,5.6-7.7
	c7.5-7.4,15-14.9,22.4-22.4c2.5-2.5,5.3-4.4,8.9-5c9.2-0.6,18.3-0.2,27.5-0.2c1.7,0,3.3,0.3,4.6,1.5c11.6,2.2,17.2,8.2,16.8,18.1
	c-3.4,5.4-7.8,10-12.3,14.6C186,503.3,187.9,502.5,189,504z"/>
<path class="st0" d="M34.9,61c15-12.5,30-24.9,45-37.4c3.9-3.3,7.9-6.6,11.9-9.8c6.5-5.1,15.1-5.6,22.2-0.6
	c3.6,2.5,7.3,5.1,10.1,8.8c-0.4,2-1.9,3.1-3.2,4.3c-10.3,10.4-20.7,20.7-31,31c-1.9,1.9-3.8,3.7-6.4,4.7c-0.6,0.2-1.1,0.3-1.7,0.4
	c-13.9,0.5-27.9,0.2-41.8,0.2C38.2,62.5,36.3,62.5,34.9,61z"/>
<path class="st1" d="M381.1,504.1c-6,1.8-12.2,1.1-18.2,0.6c-10.1-0.9-20.3-0.7-30.4-0.5c-13.7,0.2-15.7-1-15.6-15.4
	c0.1-6.2,2.1-10.9,6.6-14.8c3-2.6,6.8-3.3,10.5-4c1.5-1.3,3.3-1.5,5.1-1.5c9.1,0,18.1-0.3,27.2,0.2c0.6,0.1,1.2,0.2,1.7,0.3
	c6,1.4,12.2,0.4,18.3,0.7c1.5,0.1,3-0.1,4.5,0.1c3.8,0.5,4.5,1.9,2,4.7c-3.6,4.1-7.4,8-11.7,11.4c-4,3-7.5,6.6-10.5,10.5
	c-2.1,2.8-4.5,5.3-6.8,6.7c5.3-0.2,11.3-1.6,17.2,0.8L381.1,504.1z"/>
<path class="st2" d="M223,120.9c11.1,0,22.1-0.1,33.2-0.2c1.6,0,3.3,0.7,4.7-0.8c-2.2-3.8-5.8-6.3-8.7-9.4c-4-4.3-4.4-9.8-0.8-13.2
	c3.6-3.5,8.3-3,12.7,1.3c7.8,7.7,15.6,15.5,23.3,23.3c1.1,1.1,2.7,2.1,2.6,4c-0.2,1.4-1.2,2.3-2.1,3.3
	c-10.2,10.2-20.4,20.5-30.7,30.7c-0.9,0.9-1.9,1.9-3.3,2.2c-6.2-2.9-7.2-8.6-2.5-13.9c3-3.5,7-6.1,9.4-10.1
	c-1.5-1.6-3.4-0.8-5.2-0.8c-15.9-0.1-31.8-0.2-47.7-0.2c-0.6-1.1,0-2,0.7-2.7C213.3,129.7,217.4,124.5,223,120.9z"/>
<path class="st0" d="M333.9,163c0-21,0.1-42,0.1-63c1.2-2.3,2.7-4.4,5.1-5.7c0.5-0.2,1.1-0.4,1.6-0.5c8.9-0.2,17.8-1,26.7,0.5
	c0.6,0.3,1,0.7,1.3,1.3c1.4,4.7,0.7,9.5,0.7,14.3c0,8.4,0.4,16.9-0.2,25.3c-0.3,1.8-1.1,3.6-2.3,4.9c-7.9,8.1-15.5,16.5-24.2,23.8
	c-0.5,0.2-1,0.3-1.6,0.4C338.7,164.3,336.1,165,333.9,163z"/>
<path class="st1" d="M426,196.9c5.5-7.2,12.6-12.9,18.7-19.5c2.9-3.1,6.8-5.3,8.8-9.3c0.8-1.6,1.9-3.2,0.5-5.1c11-2.6,22-2.6,33.1,0
	c14.2,1,19.5,12.3,16.9,26c-1.5-1.3-1-3-1.1-4.5c-5.1,3.9-9.3,9-14.9,12.4C467.4,196.9,446.7,196.9,426,196.9z"/>
<path class="st1" d="M34.9,61c16.4,0,32.7,0,49.1,0c0.6,1.8-0.7,2.8-1.7,3.8c-9.8,9.9-19.6,19.8-29.6,29.6c-0.7,0.7-1.5,1.3-2.5,1.6
	c-0.5,0.2-1.1,0.3-1.7,0.3c-5.5,0.4-11,0.2-16.4,0.2c-1.8,0-3.7-0.2-5.1-1.5c-2.8,0-5.7,0.1-8.5-0.1c-5.8-0.4-8.3-3-8.5-8.9
	c-0.1-5.6-0.1-11.3,0-16.9c0.1-5.1,3-8,8-8.1C23.6,60.9,29.3,61,34.9,61z"/>
<path class="st1" d="M171.1,368c5.5,0,10.9,0,16.4,0.1c6.8,0.1,9.5,2.9,9.5,9.7c0,5.1,0.1,10.3,0,15.4c-0.1,5.8-3,8.7-8.9,8.8
	c-2.6,0.1-5.3,0-8,0.1c-1.6,1.4-3.6,1.5-5.6,1.5c-9.4,0-18.7,0.2-28.1-0.1c-7.2-0.1-14.5,0.5-21.7-0.3c-3.7-1.5-1.4-3.4-0.1-4.8
	c5-5.3,10.2-10.5,15.4-15.5c5.5-5.3,10.2-11.3,16.5-15.7c0.5-0.2,1.1-0.3,1.6-0.4C162.5,366.7,166.9,365.7,171.1,368z"/>
<path class="st0" d="M60,441c0,1.7,0,3.3,0,5c-2.3,4.5-6.4,7.5-9.9,11c-4.5,4.6-8.8,9.4-13.8,13.5c-0.5,0.3-1,0.4-1.5,0.6
	c-2.7,0.2-5.4,1-7.8-1.1c0-21,0.1-42,0.1-63c1.4-2.6,3.1-4.9,6-6c0.6-0.2,1.2-0.3,1.8-0.3c6.6-0.4,13.3-0.3,19.9-0.1
	c5.4,0.1,6.5,1.3,6.6,6.5c0.1,9.6,0.1,19.2,0,28.9C61.4,437.7,61.4,439.5,60,441z"/>
<path class="st0" d="M486.9,469.1c-6.7,2-13.5,0.7-20.2,0.9C454,470.2,454,470,454,457.4c0-9.1,0-18.2,0-27.3c1.4-3.1,4-5.3,6.4-7.5
	c7.3-7,13.9-14.6,21.7-21.1c0.5-0.2,1-0.3,1.5-0.4c1.3-0.1,2.6,0,3.6,1.1C487,424.4,487,446.7,486.9,469.1z"/>
<path class="st3" d="M418,197c0.3,0.1,0.6,0.1,0.9,0.1c0,21.4,0,42.8,0,65.6c4.2-4.2,7.6-7.6,11-11c1.7-1.7,3.4-3.2,6.1-2.4
	c0.4,1.8-0.8,2.8-1.8,3.8c-10,10.1-20.1,20.1-30.1,30.1c-0.8,0.8-1.7,1.6-2.9,1.7c-7-6.9-14.1-13.7-20.9-20.7
	c-4.2-4.4-4.4-9.2-0.9-12.8c3.6-3.7,8.4-3.5,13.1,0.9c3,2.8,5.7,6,8.5,9c0.4-0.2,0.9-0.4,1.3-0.6c0-21.2,0-42.4,0-63.7
	C407.4,194.6,412.7,194.6,418,197z"/>
<path class="st3" d="M113.9,230.2c6.7,6.6,13.6,13.1,20.1,20c4.2,4.3,4.1,9.2,0.5,12.7c-3.5,3.4-8.3,3.2-12.7-0.9
	c-3.1-2.9-5.8-6.1-8.7-9.2c-0.5,0.2-0.9,0.5-1.4,0.7c0,21.8,0,43.7,0,65.5c-0.9,0.1-1.3-0.4-1.6-1.1c-0.9-3.2-0.1-6.5-0.6-10.1
	c-3.5,3.1-6.4,6.4-9.7,9.5c-1,0.9-2.2,1.7-3.5,2.1c-0.5,0.1-0.9,0-1.3-0.3c0-22.1,0-44.1,0-66.8c-4.2,2.7-6.8,6.4-10,9.2
	c-1.6,1.4-2.6,3.5-5.1,3.5c-0.4-1.8,0.8-2.8,1.8-3.8c9.7-9.8,19.4-19.5,29.1-29.1C111.8,231.1,112.7,230.3,113.9,230.2z"/>
<path class="st1" d="M39.1,196.9c-6.8,0-13.6,0.2-20.4,0.1c-5.6-0.1-8.6-3-8.7-8.5c-0.1-4.1-0.3-8.4,0.3-12.4
	c1.1-7.4,7.5-12.1,16.7-13.1c2-1.6,4.3-1.5,6.6-1.5c6.5,0,12.9-0.2,19.4,0c4.1,0.1,5.5-1.6,5.5-5.6c-0.1-14.3-0.1-28.5,0-42.8
	c0-2.5-0.1-5,0.4-7.4c0.2-0.6,0.5-1.2,0.9-1.7c0.7-0.3,1.2-0.2,1.7,0.4c1.4,2.4,1.1,5.2,1.1,7.8c0.1,16.1,0,32.2,0.1,48.3
	c0.5,3.4,3.3,2,5.1,2.3c3.7,0.6,4.5,1.8,2.1,4.4c-9.3,9.7-18.8,19.3-28.6,28.5C40.6,196.2,39.8,196.5,39.1,196.9z"/>
<path class="st0" d="M60,105c0,17.8-0.1,35.5,0.1,53.3c0,3.7-1,4.9-4.8,4.8c-9.5-0.3-18.9-0.1-28.4-0.1c0.1-8.7,0.1-17.3,0.2-26
	c0.9-1.8,2.1-3.3,3.5-4.7c8.2-8.1,16.3-16.4,24.5-24.5C56.5,106.4,57.5,104.4,60,105z"/>
<path class="st4" d="M60.9,104c-0.3,0-0.6,0-0.9,0c-0.7-5.3-3.7-8.3-9-9c9.1-9.3,18.2-18.5,27.3-27.8c2-2,3.8-4.1,5.7-6.2
	c0,0,0,0,0,0c6.3-2,12.7-2.8,19,0c-8.7,8.9-17.4,17.8-26.2,26.7c-1.7,1.8-3.9,3.1-5.7,4.6c1.7,2.4,3.1,1.7,4.3,1.7
	c20.8,0.1,41.6,0,62.5,0.1c2.9,0,4.8-0.9,6.8-3c9.6-10.1,19.6-20,29.4-29.9c5.7,0,11.3,0,17,0.1c0.2,0.9-0.1,1.7-0.8,2.2
	c-9.7,6.3-16.6,15.5-24.8,23.3c-2.3,2.1-4.8,4.1-6.5,6.8c-1.1,1.7-3.1,1.7-4.9,1.8c-2.5,0.1-5-0.2-7.4,0.5c-0.5,0.2-1,0.3-1.6,0.4
	c-2,0.3-4,0.3-6,0.3c-22.9,0.4-45.7,0.1-68.6,0.1c-7.2-0.4-7.2-0.4-8.4,6.2C61.7,103.3,61.4,103.7,60.9,104z"/>
<path class="st2" d="M276,428.2c19.3,0,38.7,0,58,0c2.7,3.9,1.1,8.2,1.4,12.4c0,1.6-0.1,3.1-1.5,4.2c-25.4,0-50.7,0.1-76.1,0.2
	c-1.6,0-3.7-1.1-4.9,1.1c-1.3-2-1.2-2.7,0.1-2.7c9.3,0.3,13-7.5,18.7-12.5C273.1,429.8,274.5,428.9,276,428.2z"/>
<path class="st0" d="M172,61c-22.3,0-44.7,0-67,0c-1.3-1.6-0.1-2.9,0.9-3.9c8.8-9,17.6-18,26.8-26.6c0.4-0.3,0.9-0.4,1.4-0.5
	C146.7,40.3,159.4,50.6,172,61z"/>
<path class="st0" d="M146,402c11.4,0,22.8,0,34.1,0c-0.1,4.7-0.1,9.3-0.2,14c-0.9,1.8-2.1,3.4-3.5,4.8c-8.4,8.3-16.7,16.8-25.1,25
	c-1.7,1.7-4,5.1-6.4,0.4c-0.8-13.4-0.3-26.7-0.3-40.1C144.5,404.6,144.9,403.2,146,402z"/>
<path class="st1" d="M180,163c9.7,0.2,17.5,8.6,17.1,18.7c-0.6,14.6-0.8,15.3-15.7,15.3c-11.2,0-22.3-0.1-33.5-0.1
	c-0.5-1.8,0.8-2.8,1.8-3.8C159.9,183,169.8,172.8,180,163z"/>
<path class="st0" d="M454,141c0-13.8,0.1-27.5-0.1-41.3c-0.1-3.7,1.1-4.9,4.8-4.8c9.4,0.2,18.9,0.1,28.3,0.1
	c-0.1,4.7-0.1,9.3-0.2,14c-0.9,1.8-2.1,3.3-3.5,4.7c-8.2,8.1-16.3,16.4-24.5,24.5C457.5,139.6,456.5,141.6,454,141z"/>
<path class="st3" d="M235,451.1c-3.1-3-6.3-5.9-9.3-9c-3.6-3.8-3.8-8.2-0.2-11.9c8.4-8.6,16.9-17.1,25.5-25.4
	c3.5-3.4,8.7-3.2,12,0.1c2.8,2.8,2.9,8.4-0.2,11.7c-3.3,3.4-7,6.5-10.6,9.8c1.9,2.2,3.6,1.3,4.8,1.8c0.4,1.6-0.6,2.5-1.5,3.5
	c-6.1,6.2-12.2,12.3-18.4,18.3C236.5,450.5,235.8,451,235,451.1z"/>
<path class="st5" d="M96,318.8c1-0.6,2-1.2,3-1.8c4.2-2.2,8.2-2.2,12,1.1c0.3,0.3,0.6,0.6,0.8,0.8c1,0.4,1.8,1.1,2.2,2.1
	c-8.8,7.6-16.6,16.2-24.8,24.3c-7.5,7.4-14.8,15.1-22.2,22.7c-0.4,0.5-0.9,0.8-1.4,1c-5.4,0.7-10.8,0.7-16.2,0
	c-1.3-0.4-2-1.2-1.3-2.6c0.6-1.2,1.5-2.2,2.4-3.1c13.8-13.7,27.3-27.6,41.3-41.1C93.1,321,94.8,320.2,96,318.8z"/>
<path class="st0" d="M368,470c-11.3,0-22.7,0-34,0c0-3.4,0.1-6.7,0.1-10c0.8-1.5,1.6-2.9,2.8-4.1c8.7-8.7,17.4-17.5,26.2-26.1
	c1.8-1.7,4-4.4,6.1,0c0.8,12.1,0.3,24.1,0.3,36.2C369.5,467.4,369.2,468.9,368,470z"/>
<path class="st6" d="M113.9,230.2C104,240.3,94,250.4,84,260.5c-1.4,1.4-2.7,2.9-4,4.4c-4.6,1.1-8-0.7-9.8-4.7
	c-1.8-4-0.1-7.6,2.9-10.6c6.8-6.8,13.6-13.6,20.4-20.4C102.3,220.5,105.9,220.7,113.9,230.2z"/>
<path class="st0" d="M334.1,441c0-4.3-0.1-8.5-0.1-12.8c0-8.7,0-17.4,0-26.1c11.4,0,22.8,0,34.1,0c1.1,1.3,1.2,2.8,0.8,4.4
	c-0.7,2.5-2.4,4.3-4.2,6.1c-8.6,8.6-17.1,17.2-25.7,25.7C337.6,439.5,336.5,441.5,334.1,441z"/>
<path class="st6" d="M401.1,284.8c10.3-10.4,20.6-20.8,30.9-31.3c1.4-1.4,2.7-2.9,4-4.4c7.3,0,10.7,5.7,7.4,12
	c-1.5,2.7-3.9,4.5-5.9,6.7c-6,6.1-12,12-18,18C412,293.2,408,293,401.1,284.8z"/>
<path class="st4" d="M39.1,196.9c10.9-10.2,21.7-20.4,33.2-31.2c-4.8-2.8-8.5-0.3-11.2-2.8c3.8-2.5,8-1.2,12.1-1.4
	c6.4,0,12.7-0.2,19.1,0c15.4-0.2,30.8-0.1,46.2-0.1c2.6,0,5.4-0.4,7.6,1.6c0,0,0.1,0,0.1,0c-1.5,1.6-3.4,1-5.2,1
	c-15.5,0-31,0-46.5,0c-2,0-3.9-0.1-5.5,1.6C78.6,176,68.3,186.4,58,196.9C51.7,196.9,45.4,196.9,39.1,196.9z"/>
<path class="st4" d="M418,197c-5.3,0-10.6,0.1-15.9,0.1c-1-0.1-2-0.1-3.1-0.2c10.4-10.7,20.9-21.3,31.5-32.2
	c-1.6-1.2-3.1-0.7-4.5-0.7c-17.6,0-35.3,0-52.9-0.1c-1.8,0-3.7,0.6-5.2-1c0.2-0.2,0.5-0.4,0.7-0.7c1.7-0.9,3.5-0.9,5.4-0.9
	c19.6,0,39.2-0.1,58.8,0c4.6,0.1,9.3-0.1,13.9,0c2.1,0.1,4.4-0.1,6.1,1.5c-5,2.7-8.5,7.2-12.4,11.1C433,181.6,425.5,189.3,418,197z"
	/>
<path class="st5" d="M134,30c-8.6,8.8-17.2,17.5-25.7,26.3c-1.3,1.4-3.3,2.4-3.3,4.8c-0.7,0-1.3,0-2,0c-6.3,0-12.7,0-19,0
	c11.8-11.6,23.5-23.2,35.3-34.8c1.5-1.5,3.2-2.9,4.8-4.3C128,23.9,130.9,27,134,30z"/>
<path class="st1" d="M15,401c-3.6-0.7-4.8-3.4-4.9-6.5c-0.2-6.3-0.2-12.6,0-18.8c0.2-4.7,3.2-7.5,8-7.6c5.9-0.2,11.9-0.1,17.9-0.1
	c3.1-1.8,6.4-1.6,9.8-0.9c3.4,2.1,0.6,3.7-0.7,5c-5.7,6-11.6,11.9-17.6,17.7C23.4,393.5,20.2,398.4,15,401z"/>
<path class="st1" d="M180.1,95c-7,0-14,0-21.1,0c-0.2-0.5-0.2-1,0.1-1.4c10.8-10.2,20.6-21.5,32-31.2c0.3-0.2,0.5-0.4,0.9-0.5
	c4,1,4.9,4.1,5,7.6c0.1,5.5,0.1,11,0,16.4c-0.1,5.6-2.8,8.5-8.5,9C185.7,95.1,182.9,95,180.1,95z"/>
<path class="st1" d="M322.1,93.9c-3.8-1.1-5.1-3.8-5.1-7.6c0.1-5.7-0.1-11.3,0-17c0.1-5.3,3.1-8.2,8.5-8.3c5.5-0.1,11,0,16.5,0
	c3.4-1.4,7-1.9,10.6-0.9c3.3,2.1,0.6,3.7-0.6,5c-4.5,4.8-9.3,9.4-14,14.1c-3.9,3.9-7.7,7.7-11.6,11.6C325.2,92,324,93.4,322.1,93.9z
	"/>
<path class="st5" d="M146.1,448c2.3-0.1,3.3-2,4.7-3.4c9.7-9.5,19.4-19,29.1-28.6c0,6.3,0,12.6,0,19c-0.9,2.2-2.5,3.8-4.2,5.5
	c-8.8,8.8-17.6,17.6-26.4,26.4c-1,1-2.2,4.4-4.3,0.7c-0.8-5.8-0.5-11.6-0.2-17.4C145,449.3,145.3,448.5,146.1,448z"/>
<path class="st5" d="M334.1,441c11.6-11,23-22.1,33.7-33.9c0.2,0.2,0.5,0.4,0.7,0.6c1.8,6,0.8,12,0.7,18c-0.2,0.9-0.5,1.8-1.4,2.3
	c-2.3,0.1-3.3,2-4.7,3.3c-9.7,9.5-19.4,19-29.1,28.6c-0.1-5.1-0.1-10.1-0.2-15.2C334,443.5,334,442.2,334.1,441z"/>
<path class="st4" d="M180,163c-0.1,2.3-1.9,3.4-3.3,4.8c-9.5,9.7-19.1,19.4-28.7,29.1c-6.3,0-12.6,0-19,0
	c9.5-9.7,19.1-19.4,28.6-29.1c1.5-1.5,2.9-3.2,4.3-4.8c0.3,0,0.7,0,1,0C168.7,160.8,174.4,160.5,180,163L180,163z"/>
<path class="st4" d="M15,401c8.8-8.9,17.6-17.9,26.3-26.8c2-2,3.8-4.1,5.7-6.2c0.3-0.3,0.6-0.3,1,0c6,0,12,0,18,0
	c0.7,1.8-0.7,2.8-1.7,3.8c-9.2,9.3-18.4,18.5-27.6,27.7c-1.1,1.1-2.5,1.6-3.7,2.5c-0.3,0-0.7,0-1,0c-1.7,1.1-3.4,1.4-5.1,0
	C23,401.4,18.8,403.1,15,401z"/>
<path class="st4" d="M322.1,93.9c9.3-9.5,18.7-18.9,28-28.4c1.4-1.4,2.6-3,4-4.4c0.2-0.2,0.4-0.4,0.6-0.6c5.7-1.5,11.4-0.9,17-0.4
	c3.2,1.7,0.9,3.3-0.2,4.6c-2.8,3.2-6,6.2-9.1,9.2c-5.6,5.6-11.3,11.2-16.9,16.9c-1.9,1.9-4,3.5-6.5,4.3l0,0c-1.7,1.1-3.4,1.4-5.1,0
	C330,94.5,325.8,96,322.1,93.9z"/>
<path class="st0" d="M146.1,469c10.7-11.9,22.2-23,33.8-34c0,11.7,0.1,23.3,0.1,35c-11.3,0-22.6,0-33.9,0c-0.1-0.2-0.2-0.3-0.3-0.5
	C145.9,469.3,146,469.2,146.1,469z"/>
<path class="st5" d="M454,141c9.1-9,18.3-17.9,27.4-26.9c1.8-1.7,3.7-3.4,5.5-5c0,6.3,0,12.6,0,18.9c-0.8,1.8-2.1,3.3-3.5,4.8
	c-8.2,8.1-16.3,16.4-24.6,24.5c-1.3,1.3-2.4,3.3-4.8,2.8C454,153.7,454,147.3,454,141z"/>
<path class="st0" d="M454,160c9.4-9.2,18.7-18.4,28.1-27.6c1.5-1.5,3.2-2.9,4.8-4.4c0.1,11.7,0.1,23.3,0.2,35c-11,0-22,0-33.1,0
	C454,162,454,161,454,160z"/>
<path class="st0" d="M478.1,367.9c-17,0-34,0-51.1,0c-0.6-1.3,0.2-2.3,1-3.1c6.5-6.7,13-13.2,19.7-19.7c0.6-0.6,1.4-0.9,2.2-1.1
	C459.3,352.1,469.4,359.2,478.1,367.9z"/>
<path class="st4" d="M342,163c0.3,0,0.7,0,1,0c5.7-2.2,11.3-2.6,17,0c0,2.3-1.9,3.4-3.3,4.8c-9.5,9.7-19.1,19.4-28.7,29.1
	c-7.9,0.3-10.7-2-10.9-8.9c1.5-3.5,4.4-5.8,7.1-8.3C330.1,174.1,335.1,167.5,342,163z"/>
<path class="st5" d="M51,95c9,0,9,0,9,9c0,0.3,0,0.7,0,1c-9.1,9-18.3,17.9-27.4,26.9c-1.8,1.7-3.7,3.4-5.5,5c0-6.3,0-12.6,0-18.9
	c6.6-8.7,14.3-16.2,22.9-23C50.3,95,50.7,95,51,95z"/>
<path class="st5" d="M449.9,344.2c-6.4,6.6-12.9,13.2-19.3,19.8c-1.3,1.3-2.4,2.7-3.6,4.1c-0.3,0-0.7,0-1,0c-6,2.3-12,2.6-18,0
	c10.3-11,20.9-21.7,32-32C443.3,338.7,446.6,341.4,449.9,344.2z"/>
<path class="st1" d="M498.9,475.2c3.5,2.3,4.8,5.8,5,9.7c0.3,3.5,0.2,7,0.1,10.5c-0.1,5.9-2.7,8.5-8.5,8.6c-8.2,0.1-16.3,0-24.5,0
	c0,0-0.1-0.2-0.1-0.2c0.9-5,5.8-6.9,8.4-10.5c5-4.8,9.8-9.8,14.8-14.7C495.6,477.3,496.8,475.7,498.9,475.2z"/>
<path class="st6" d="M235,451.1c7.3-7.7,14.7-15.3,22-23c6.3,0,12.7,0,19,0c-4.6,4.7-9.3,9.4-13.8,14.2c-2,2.2-4.6,1.4-7,1.6
	c-1.1,0.1-3.4-0.8-2.2,2c0.7,0.7,1.3,1.4,2,2c0.3,0.4,0.7,0.9,0.5,1.3c-3,4.6-5.8,9.2-11.6,10.7C240.9,457.1,237.9,454.1,235,451.1z
	"/>
<path class="st4" d="M498.9,475.2c-6,6.5-12.2,12.9-18.9,18.8c-4.2,3.5-9.2,2.6-14,2.1c-1.6-0.2-3.2-0.9-3-3.1
	c6.7-6.8,13.4-13.7,20-20.5c2.1-2.1,4.6-1.2,7-1.5C493.9,470.6,496.4,472.9,498.9,475.2z"/>
<path class="st0" d="M354,61c-4,0-8,0-12,0c18.7-15.5,37.4-31,56.1-46.5c1.8-1.4,3.4-3.1,5.9-3.4c-0.4,4.2-4.5,5.6-6.5,8.6
	c-12.4,12.3-24.7,24.6-37,37C358.6,58.6,356.6,60.2,354,61L354,61z"/>
<path class="st0" d="M48,368c-0.3,0-0.7,0-1,0c-3.7,0-7.4,0-11.1-0.1c6.5-6.8,14.3-12.3,21.4-18.4c10.9-9.4,22.1-18.4,33.3-27.6
	c1.4-1.1,3-2,4.5-3c0.2-0.1,0.5-0.1,0.8-0.2c-0.6,1.9-2.2,2.9-3.4,4.2c-13.6,13.7-27.3,27.3-40.9,40.9C50.3,365.2,49.2,366.6,48,368
	z"/>
<path class="st2" d="M243.9,460.1c4.1-3.7,8.7-6.8,11.1-12c2.6,2.5,5.4,4.9,7.8,7.6c3.2,3.6,3,9-0.1,12.1c-3.3,3.2-8.1,3.1-11.9-0.5
	C248.4,464.9,246.2,462.4,243.9,460.1z"/>
<path class="st0" d="M50,95c-7.2,8.1-14.9,15.7-22.9,23c0-7.7-0.1-15.3-0.1-23C34.6,95,42.3,95,50,95z"/>
<path class="st6" d="M254,162.1c11.6-12.5,23.6-24.5,36.1-36.1c2.3,3.7,0.7,6.7-1.8,9.2c-8.3,8.4-16.6,16.8-25,25
	C260.6,162.8,257.6,164.3,254,162.1z"/>
<path class="st1" d="M342,163c-7.9,8.7-16.3,17-24.9,25c0-4.3-1-8.7,0.5-12.8c2.7-7.6,8.3-11.7,16.3-12.2
	C336.6,163,339.3,163,342,163z"/>
<path class="st1" d="M27,470c3,0,6,0,9,0c-3.9,6.4-9.9,10.8-15.3,15.9c-2.5,1.8-4.6,4-6.6,6.4c-1.1,1.3-1.8,3.2-4.1,2.7
	c-0.1-1.5-0.2-3-0.2-4.5C9.9,477.3,13.8,472.5,27,470z"/>
<path class="st7" d="M487.1,402.1c-1.4,0-2.7,0-4.1-0.1c0.6-4.7,5.1-6.4,7.3-9.8c3.3-2.7,6.1-6,9.3-8.9c1.2-1.1,2.2-3,4.5-2.3
	c0,4.1,0.1,8.2,0,12.3c-0.2,5.9-3.1,8.5-9,8.7C492.4,402,489.7,402,487.1,402.1z"/>
<path class="st5" d="M465,61c-0.7,0-1.3,0-2,0c-6,2.5-12.2,1.8-18.3,0.6c-0.2-0.2-0.5-0.4-0.7-0.7c4.2-4,8.4-8,12.6-12
	c1.3-1.2,2.3-2.9,4.4-2.9c2.9,2.7,6.7,4.6,9.1,7.9C470.2,57.6,466.8,58.7,465,61z"/>
<path class="st5" d="M157,368c-0.3,0-0.7,0-1,0c-6,2.3-12,2.6-18,0c4.7-5.4,9.6-10.4,15.1-15c3.9,2,6.7,5.2,9.9,8
	C162.9,365,159.6,366.1,157,368z"/>
<path class="st8" d="M504.1,381c-4.4,4-8.7,8-13.1,12c-1.3-1.3-1.3-3-0.9-4.6c1-4,0.4-7.7-1.1-11.4c1.7-3.4,6-4.8,7-8.9
	C503.9,370.6,503.9,370.6,504.1,381z"/>
<path class="st9" d="M335.9,368.1c-5.9,6.6-12.2,12.9-18.8,18.8c0-3.6-0.2-7.2-0.1-10.8c0.1-4.9,3.1-7.9,8.1-8.1
	C328.7,367.9,332.3,368.1,335.9,368.1z"/>
<path class="st10" d="M397,19c2.3-2.6,4.7-5.3,7-7.9c6-2.1,11.7-2.3,16.9,2c-2.6,3.3-5.5,6.3-8.9,8.9c-3-0.8-6.2-0.4-9.3-0.7
	C400.6,21.1,398.5,20.8,397,19z"/>
<path class="st4" d="M192,62c-10.6,11.5-21.6,22.4-33,33c0,0,0,0,0,0c-4.3,2-8.6,2.5-12.9,0c0.6-0.3,1.2-1,1.6-0.9
	c9,2,12.9-4.7,17.9-10c4.7-5,10.2-9.3,14.7-14.5c3.1-3.5,6.8-6,10.6-8.5C191.3,61.4,191.7,61.7,192,62z"/>
<path class="st5" d="M180,163c-5.7,0-11.4,0-17.1,0c5.2-6,10.9-11.7,16.9-16.9C180,151.7,180,157.3,180,163z"/>
<path class="st11" d="M10,495c3.8-2.9,5.7-7.6,10-10c1.1,1.1,0.3,2.1-0.2,3.1c-2.3,4.3-1.6,6.3,2.7,8.3c1.2,0.5,2.6,0.5,3.5,1.6
	c-1.7,2-3.3,4-5,6.1C13.8,505,10.1,502,10,495z"/>
<path class="st12" d="M488.1,196.9c4.2-5.7,10.3-9.3,15.9-15.3c0,3.4,0,5.4,0,7.5c-0.4,5.1-3.1,7.8-8,8
	C493.3,197.1,490.7,196.9,488.1,196.9z"/>
<path class="st13" d="M189,504c-2.1,0-4.1,0-7.7,0c6.4-5.4,9.8-11.7,15.5-15.9c0,2.6,0.2,5.3,0.1,7.9
	C196.8,500.9,194.1,503.6,189,504z"/>
<path class="st14" d="M465,61c0.3-3.3,3.9-4.3,5-7c3.6,1.5,5.9,4.9,9,7C474.4,61,469.7,61,465,61z"/>
<path class="st0" d="M157,368c2-2.3,4-4.7,6-7c2.7,2.3,6.1,3.8,8.1,7C166.4,368,161.7,368,157,368z"/>
<path class="st15" d="M26.9,402.1c1.7,0,3.4,0,5.1,0c-1.3,2-2.9,3.6-4.9,4.9C27,405.3,27,403.7,26.9,402.1z"/>
<path class="st16" d="M333.9,95c1.7,0,3.4,0,5.1,0c-1.3,2-2.9,3.7-4.9,4.9C334,98.3,334,96.7,333.9,95z"/>
<path class="st4" d="M408,368c6,0,12,0,18,0c-9.1,9.2-18.2,18.5-27.2,27.7c-2,2-3.8,4.1-5.7,6.2c-0.6,0.8-1.4,1.1-2.3,1.3
	c-5.4,0.1-10.8,1-16.1-0.7c-0.2-0.2-0.4-0.4-0.6-0.7c9.7-9.8,19.4-19.6,29-29.4c1.4-1.4,2.6-3,4-4.4C407.3,368,407.7,368,408,368z"
	/>
<path class="st17" d="M391,402.1c0.7,0,1.4-0.1,2-0.1c20,0,39.9,0.1,59.9,0.1c0,3.7,0,7.3,0,11c-1,1.9-2.3,3.6-3.9,5.1
	c-16.4,16.4-32.8,32.8-49.2,49.2c-1.6,1.6-3,3.7-5.8,3.4c-7.1-0.5-14.2,0-21.3-0.2c-1.6,0-3.3,0.5-4.8-0.5c0,0,0,0.1,0,0.1
	c0-14-0.1-28-0.1-42c0.1-0.7,0.1-1.4,0.2-2.1c2.3-4.5,6.4-7.5,9.9-11C382.2,410.6,386.4,406.2,391,402.1z"/>
<path class="st18" d="M396,470c5.4-5.6,10.8-11.3,16.3-16.8c13.5-13.5,27.1-26.8,40.7-40.2c0,6.3,0,12.7-0.1,19
	c-0.9,1.8-2.1,3.4-3.5,4.8c-10.2,10.2-20.5,20.4-30.7,30.7c-1.5,1.5-3.1,3.1-5.5,3.1C407.4,471.7,401.7,472.6,396,470z"/>
<path class="st17" d="M415,470c12.3-13,24.9-25.7,37.9-38c0,12.7,0,25.3,0.1,38c-6.9,1.2-13.8,0.4-20.7,0.5
	C426.5,470.5,420.7,471.1,415,470z"/>
<path class="st4" d="M415,470c12.7,0,25.3,0,38,0c-1.4,1.7-3.4,1-5.1,1c-9.6,0.1-19.3,0.2-28.9,0c-3.8-0.1-6.5,1-9.2,3.7
	c-7.4,7.6-15.1,14.9-22.7,22.4c-4.2,2.3-8.7,1.5-13.1,1c-3.5-0.4-3.8-2.3-1.3-5.1c2.4-2.7,5.4-4.9,7.4-8c4.5-4.3,9-8.6,14.7-14
	c-8.2,0-14.9,0-21.6,0c-1.7,0-3.7,0.7-5.1-1c9.3,0,18.6,0,28,0.1C402.3,470,408.7,470,415,470z"/>
<path class="st5" d="M482,402c-8.9,9.7-18.3,19-28,28c0-6.3,0-12.7,0-19c2.2-3.8,5.2-6.8,9-9c0.3,0,0.7,0,1,0
	C470,399.7,476,399.4,482,402z"/>
<path class="st19" d="M463,493c4.5,4.1,9.7,1.4,14.6,1.6c0.8,0,1.6-0.4,2.4-0.6c-3,3.3-6,6.6-9,9.9c-6,0-12,0-18.9,0
	C455.8,499.5,459.1,496,463,493z"/>
<path class="st12" d="M380,485c-0.9,3.9-4.6,5.4-6.8,8.3c-0.6,0.8-2.2,1.4-1.3,2.8c0.6,1,1.7,0.9,2.7,0.9c4.1,0,8.3,0,12.4,0
	c-2,2.3-4,4.6-6,6.9c-6,0-11.9,0-19.1,0C368.5,497.4,373.1,490.2,380,485z"/>
<path class="st14" d="M463,402c-2.6,3.4-5.6,6.4-9,9c0-3,0-6,0-9C457,402,460,402,463,402z"/>
<path class="st4" d="M482,402c-6,0-12,0-18,0c7.9-8.8,16.3-17.1,25-25c4.5,2.4,3.1,6.6,2.7,10.1c-0.2,1.9-0.7,3.9-0.7,5.9
	c-2.7,3-5.3,6-8,9C482.7,402,482.3,402,482,402z"/>
<path class="st17" d="M146.1,448c-0.1,0.7-0.1,1.4-0.2,2.1c-5.1,7.7-12.4,13.3-18.8,19.8c-0.9,0.9-2,1.1-3.3,0.8
	c-19.2-0.3-38.3,0-57.5-0.2c-1.8,0-3.7,0.5-5.4-0.5c0-2.3,0-4.7,0-7c1.1-2.3,2.9-4.1,4.6-5.8c18.4-18.5,37.1-36.8,55.4-55.5
	c0.7-0.3,1.4-0.2,2,0.3c7.6,0,15.3,0,22.9,0.1C146,417.3,146.1,432.7,146.1,448z"/>
<path class="st1" d="M33,402c9.6-9.7,19.1-19.4,28.7-29.2c1.5-1.5,2.9-3.2,4.3-4.8c0.3,0,0.7,0,1,0c23.3,0,46.7,0,70,0
	c0.5,1.1,0,2-0.7,2.7c-10.8,10.8-21.1,22.1-32.7,32.1c-0.5,0.2-1.1,0.4-1.6,0.4c-11,0.6-21.9,0.1-32.9,0.3c-6.1,0.1-6.5,0.4-6.5,6.5
	c-0.1,8.1,0,16.3,0,24.4c0,2.3,0.3,4.7-1.6,6.5c-0.3,0-0.6,0-0.9,0c0-11.6-0.1-23.2,0-34.8c0-3.2-0.9-4.4-4.2-4.3
	C48.2,402.1,40.6,402,33,402z"/>
<path class="st20" d="M121,402.1c0,1.5-1,2.4-1.9,3.4c-18.9,18.9-37.9,37.8-56.8,56.7c-0.3,0.3-0.8,0.5-1.2,0.8c0-6.3,0-12.7,0-19
	c0.9-2,2.3-3.6,3.9-5.1c11-10.9,21.9-21.9,32.8-32.9c1.8-1.8,3.7-3.2,6.2-3.9l0-0.1C109.7,399.9,115.3,399.3,121,402.1z"/>
<path class="st17" d="M104,402.1c-11.1,9.9-21.2,20.9-31.9,31.3c-3.7,3.6-7.4,7.1-11.1,10.7c-0.1-1-0.1-2-0.2-3
	c0-11.6,0.2-23.2,0-34.8c0-3.3,1-4.3,4.3-4.2C78.1,402.1,91.1,402,104,402.1z"/>
<path class="st21" d="M61,470c21.7,0,43.3,0,65,0c6.6-2.5,13.3-2.5,20,0c0,0,0.2,0,0.2,0c-5.1,2.4-8.3,7-12.3,10.7
	c-5.7,5.4-11.2,10.9-16.8,16.3c-4.3,1.5-8.7,1.7-13.2,0.7c-2.9-0.7-4-2.1-1.3-4.7c2.6-2.5,5.4-4.9,7.5-7.9c4.5-4.3,9-8.6,14.7-14
	c-2.9,0-4.3,0-5.7,0c-17.6,0-35.2,0-52.9,0C64.4,471,62.4,471.7,61,470z"/>
<path class="st22" d="M26,498c-2.1-0.1-4.1,0.2-6-1.4c-4.5-4-4.6-4.4-0.8-9.3c0.5-0.6,0.6-1.5,0.9-2.2c5.3-5,10.7-10,16-15
	c0,0,0,0,0,0c4.7-2.1,9.3-2.5,14,0c0.2,1.1,4,0.7,1.3,3.3C42.8,481.4,34.4,489.7,26,498z"/>
<path class="st5" d="M50,470c-4.7,0-9.3,0-14,0c7.6-8.4,15.6-16.4,24-24c0,6.3,0,12.7,0,19c-1.1,2.3-2.7,3.9-5,5
	C53.3,470,51.7,470,50,470z"/>
<path class="st12" d="M110,485c-1.2,4.6-6.2,6.3-8.3,10.4c4.8,3.6,10.3,0.1,15.3,1.6c-2,2.3-4,4.6-6,6.9c-6,0-11.9,0-19.1,0
	C98.5,497.4,103.1,490.2,110,485z"/>
<path class="st14" d="M55,470c1.3-2,2.9-3.7,5-5C60.7,469,59,470.7,55,470z"/>
<path class="st5" d="M360,163c-5.7,0-11.3,0-17,0c6.8-6.9,13.6-13.8,20.3-20.8c1.6-1.6,3-3.4,4.5-5.1c0.2,0.2,0.4,0.4,0.7,0.6
	c1.9,5.7,0.7,11.6,0.8,17.4c0,0.8-0.2,1.6-0.5,2.4c-1.7,2.5-4.3,4.1-6.8,5.6C361.3,163,360.7,163,360,163z"/>
<path class="st23" d="M362,163c1.6-2.1,3-4.5,5.9-5c1.6,1.6,1.4,3.3,0.2,5c0,0-0.1,0-0.1,0C366,163,364,163,362,163z"/>
<path class="st17" d="M367.8,407c0.1-1.7,0.1-3.4,0.2-5c2,0,4-0.1,6-0.1c0,0-0.1,0.2-0.1,0.2c-0.8,2.9-2.7,4.6-5.8,4.8L367.8,407z"
	/>
<path class="st1" d="M339,95c11.7-10.9,23.1-22.2,34-34c0.7-0.5,1.3-0.6,2,0c23,0,46,0,69,0c0,0,0,0,0,0c0.5,2.4-1.3,3.6-2.6,5
	c-8.5,8.6-17.1,17.2-25.7,25.8c-1.9,1.9-4,3.5-6.9,3.5c-13.6-0.1-27.2,0.4-40.8-0.2C358.3,95,348.6,95,339,95z"/>
<path class="st5" d="M375,61c-0.7,0-1.3,0-2,0c-6.3,0-12.7,0-19,0c12.6-12.4,25.2-24.9,37.9-37.3c1.6-1.6,3.4-3.1,5.1-4.7
	c3.6,0.7,7.2,1.3,10.8,1c1.7-0.1,3.3,0.2,4.2,2c-12.1,12.2-24.1,24.5-36.1,36.8C375.4,59.3,375.3,60.2,375,61z"/>
<path class="st4" d="M121,402.1c-5.7-0.1-11.3-0.1-17-0.2c9.7-9.8,19.4-19.6,29.1-29.5c1.4-1.4,2.6-3,4-4.4c0.3,0,0.7,0,1,0
	c6,0,12,0,18,0c-9.1,9.2-18.2,18.5-27.2,27.7c-2,2-3.8,4.1-5.7,6.2C122.4,402,121.7,402,121,402.1z"/>
<path class="st17" d="M145.9,163c-18,0-36-0.1-53.9-0.1c-0.5-2.2,1.3-3.3,2.5-4.5c15.6-15.7,31.3-31.3,46.9-47
	c1.2-1.2,2.2-2.5,4-2.7c0.2,0.1,0.5,0.2,0.7,0.2C146.1,126.9,146,145,145.9,163z"/>
<path class="st24" d="M223,120.9c-5,5.4-10,10.7-15,16.1c-6.7,0-13.3,0-20,0c-0.5-0.9-0.2-1.7,0.4-2.3c4.7-4.9,8.9-10.2,14.7-13.8
	C209.7,121,216.3,120.9,223,120.9z"/>
<path class="st25" d="M203,121c-5,5.4-10,10.7-15,16.1c-1,0.1-2,0-3,0.2c-3.8,0.6-5.1-0.9-5-4.9c0.2-11.6,0-11.6,11.6-11.6
	C195.4,120.8,199.2,120.9,203,121z"/>
<path class="st5" d="M146.1,95c4.3,0,8.6,0,12.9,0c-4.3,4.6-8.6,9.3-12.8,13.9c0,0-0.3,0.2-0.3,0.2C143.7,104.4,143.6,99.7,146.1,95
	L146.1,95z"/>
<path class="st17" d="M368.1,163c-0.1-1.7-0.1-3.3-0.2-5c0.1-0.7,0.1-1.4,0.2-2.1c0.9-2,2.3-3.6,3.9-5.1
	c17.7-17.7,35.4-35.4,53.1-53.1c1.6-1.6,3-3.7,5.7-3.4c7.4,0.8,14.8-0.6,22.1,0.8c0,16,0,32,0,47.9c-5.7,7.6-12.4,14.2-19.9,19.9
	C411.4,163,389.7,163,368.1,163z"/>
<path class="st4" d="M453,95.1c-8,0-16,0-24,0c-6.2,2.9-12.7,1.1-19.1,1.5c-11.6,0.2-23.2,0.1-34.7,0.1c-2.5,0-5,0.3-7.1-1.6
	c0,0-0.1,0-0.1,0c1.5-1.6,3.4-1,5.2-1c11.4-0.1,22.9,0,34.3,0c2,0,3.9,0.2,5.6-1.5c10.3-10.5,20.7-21,31-31.5c6.3,0,12.7,0,19,0
	c-8.7,8.9-17.4,17.8-26.2,26.7c-1.7,1.8-3.9,3.1-5.8,4.7c0.3,0.6,0.6,1.1,0.8,1.7c5.2,0,10.4-0.1,15.6,0
	C449.2,94.1,451.4,93.2,453,95.1z"/>
<path class="st20" d="M433,163c6.2-7.1,12.9-13.7,19.9-19.9c0,6.6,0,13.3,0,19.9C446.3,162.9,439.7,162.9,433,163z"/>
<path class="st17" d="M368.1,95c14,0,28,0,41.9,0.1c0.5,2.2-1.3,3.3-2.5,4.5c-11.6,11.7-23.2,23.3-34.9,34.9c-1.2,1.2-2.3,3-4.5,2.5
	c0,0-0.3,0.1-0.3,0.1C367.9,123,368,109,368.1,95z"/>
<path class="st26" d="M404.2,211.5c-0.9-1.6-1.1-1.7-1.1-1.9c0.1-13.4-2.7-11.8,12.4-11.4c-1.4,2.7-3.8,4.2-5.5,6.3
	C408.2,206.7,406.4,208.9,404.2,211.5z"/>
<path class="st24" d="M111,318.1c-3.9-1.2-7.9-1.3-12-1.1c3.2-4.3,7.4-7.7,12-12.4C111,310,111,314,111,318.1z"/>
<path class="st17" d="M73,163c-4,0-8,0-12,0c0-19.6-0.1-39.3-0.1-58.9c0.1-0.4,0.1-0.7,0.2-1.1c1.8-3.5,4.4-6.1,7.9-7.9
	c23.7,0,47.3,0,71,0c0.5,2.4-1.5,3.5-2.8,4.9c-19.8,19.9-39.6,39.6-59.4,59.5C76.3,160.9,74.8,162,73,163z"/>
<path class="st18" d="M73,163c2.7-2.9,5.4-5.9,8.2-8.7c18.4-18.4,36.7-36.8,55.1-55.1c1.3-1.3,2.4-2.7,3.7-4.1c2,0,4,0,6-0.1
	c0,4.7-0.1,9.4-0.1,14.1c-14,13.9-28.1,27.8-42.1,41.7c-4,4-7.8,8.1-11.8,12.2C85.7,162.9,79.3,162.9,73,163z"/>
<path class="st27" d="M69,95c-2.2,3-4.9,5.7-7.9,7.9C61,93.8,60.1,95,69,95z"/>
<path class="st20" d="M145.9,470c-6.7,0-13.3,0-20,0c6.2-7.1,12.9-13.7,19.9-20c0.1,6.3,0.1,12.7,0.2,19
	C146,469.3,146,469.7,145.9,470z"/>
<path class="st27" d="M368.1,406.9c1.9-1.6,3.9-3.2,5.8-4.8c5.7,0,11.4,0,17,0c0,1.9-1.5,2.9-2.6,4c-6.7,6.6-13.5,13.2-20.3,19.8
	C368.1,419.6,368.1,413.3,368.1,406.9z"/>
<path class="st18" d="M368.1,136.9c14.3-13.6,28.3-27.5,41.9-41.9c6.3,0,12.7,0,19,0c-5.4,5.6-10.8,11.3-16.3,16.8
	c-14.8,14.8-29.7,29.4-44.6,44.2C368.1,149.6,368.1,143.3,368.1,136.9z"/>
</svg>
